<svg xmlns="http://www.w3.org/2000/svg" width="900" height="900" viewBox="0 0 900 900" role="img" aria-labelledby="title desc">
  <title id="title">Pressed by Chey</title>
  <desc id="desc">Pressed by Chey luxury press-on nails logo with rose lettering, circle frame, stars, and heart.</desc>
  <defs>
    <radialGradient id="bg" cx="50%" cy="38%" r="68%">
      <stop offset="0" stop-color="#fff8fb"/>
      <stop offset="0.58" stop-color="#ffe7ef"/>
      <stop offset="1" stop-color="#ffd3e0"/>
    </radialGradient>
    <linearGradient id="rose" x1="0" x2="1" y1="0" y2="1">
      <stop offset="0" stop-color="#ffe2ea"/>
      <stop offset="0.28" stop-color="#cf5967"/>
      <stop offset="0.58" stop-color="#f49aa7"/>
      <stop offset="1" stop-color="#9f3243"/>
    </linearGradient>
    <filter id="softShadow" x="-20%" y="-20%" width="140%" height="140%">
      <feDropShadow dx="0" dy="8" stdDeviation="7" flood-color="#9f3243" flood-opacity="0.22"/>
    </filter>
  </defs>
  <rect width="900" height="900" fill="url(#bg)"/>
  <circle cx="450" cy="472" r="330" fill="none" stroke="#c85766" stroke-width="3"/>
  <path d="M156 360 C222 190 330 125 450 125 C590 125 700 210 744 360" fill="none" stroke="#c85766" stroke-width="3" stroke-linecap="round"/>
  <path d="M132 530 C172 710 300 790 450 790 C606 790 708 702 760 530" fill="none" stroke="#c85766" stroke-width="3" stroke-linecap="round"/>
  <g fill="url(#rose)">
    <path d="M255 300 L272 350 L322 367 L272 384 L255 435 L238 384 L188 367 L238 350 Z"/>
    <path d="M675 308 L688 346 L727 359 L688 372 L675 411 L662 372 L623 359 L662 346 Z"/>
    <path d="M334 344 L344 374 L374 384 L344 394 L334 424 L324 394 L294 384 L324 374 Z"/>
    <circle cx="340" cy="292" r="4"/>
    <circle cx="713" cy="401" r="4"/>
    <circle cx="282" cy="667" r="5"/>
    <circle cx="650" cy="667" r="5"/>
  </g>
  <text x="450" y="455" text-anchor="middle" font-family="Georgia, 'Times New Roman', serif" font-size="132" letter-spacing="17" fill="url(#rose)" stroke="#a83d4c" stroke-width="1.2" filter="url(#softShadow)">PRESSED</text>
  <text x="456" y="580" text-anchor="middle" font-family="'Brush Script MT', 'Segoe Script', cursive" font-size="118" fill="none" stroke="#bd4858" stroke-width="5.5" stroke-linecap="round" stroke-linejoin="round" filter="url(#softShadow)">By Chey</text>
  <path d="M704 540 C728 506 770 532 748 575 C778 557 806 589 774 622 C752 645 716 653 680 666 C682 625 685 570 704 540 Z" fill="none" stroke="#bd4858" stroke-width="6" stroke-linecap="round" stroke-linejoin="round" filter="url(#softShadow)"/>
  <text x="450" y="738" text-anchor="middle" font-family="Inter, Arial, sans-serif" font-size="22" letter-spacing="18" fill="#241018">LUXURY PRESS-ON NAILS</text>
</svg>
